<svg width="50" height="50" viewBox="0 0 50 50" fill="none" xmlns="http://www.w3.org/2000/svg">
    <g clip-path="url(#clip0_6_7915)">
        <path d="M43.0439 40.3675C22.804 50 10.2429 41.9408 2.20209 37.0458C1.70453 36.7373 0.858855 37.1179 1.5926 37.9607C4.27138 41.2088 13.0503 49.0376 24.5094 49.0376C35.9763 49.0376 42.7981 42.7807 43.6515 41.6892C44.4991 40.607 43.9003 40.01 43.0437 40.3675H43.0439ZM48.7282 37.2283C48.1847 36.5205 45.4232 36.3886 43.6853 36.6021C41.9447 36.8094 39.3321 37.8732 39.5592 38.5119C39.6758 38.7512 39.9137 38.6438 41.1094 38.5363C42.3084 38.4167 45.6673 37.9928 46.3672 38.9077C47.0703 39.829 45.2959 44.2176 44.9718 44.9254C44.6587 45.6331 45.0914 45.8157 45.6796 45.3443C46.2597 44.8731 47.3098 43.6527 48.0145 41.9258C48.7144 40.1894 49.1411 37.7672 48.728 37.2283H48.7282Z" fill="#FF9900"/>
        <path fill-rule="evenodd" clip-rule="evenodd" d="M29.4348 20.7125C29.4348 23.2399 29.4987 25.3476 28.2212 27.5921C27.1901 29.4172 25.5569 30.5394 23.732 30.5394C21.241 30.5394 19.7902 28.6415 19.7902 25.8404C19.7902 20.3109 24.7447 19.3073 29.4348 19.3073V20.7125ZM35.977 36.5251C35.5481 36.9082 34.9276 36.9357 34.4441 36.6801C32.2907 34.8918 31.9074 34.0616 30.7213 32.3552C27.1628 35.9868 24.6445 37.0725 20.0276 37.0725C14.5711 37.0725 10.3191 33.7056 10.3191 26.9626C10.3191 21.698 13.1752 18.112 17.2353 16.3602C20.7575 14.8089 25.6755 14.5352 29.4348 14.1065V13.267C29.4348 11.7249 29.5533 9.90003 28.6501 8.56794C27.8562 7.37261 26.3416 6.87986 25.0093 6.87986C22.5367 6.87986 20.3286 8.14809 19.7902 10.7759C19.6806 11.36 19.2519 11.9349 18.668 11.9622L12.372 11.2871C11.8429 11.1683 11.259 10.7396 11.405 9.92734C12.8557 2.29951 19.7444 0 25.9125 0C29.0696 0 33.1937 0.839523 35.6848 3.23019C38.8419 6.17728 38.5407 10.1099 38.5407 14.3892V24.4991C38.5407 27.5375 39.7999 28.8696 40.986 30.5121C41.4057 31.096 41.497 31.7988 40.9677 32.2365C39.6447 33.3405 37.2906 35.3936 35.995 36.5434L35.9768 36.5251" fill="black"/>
        <path d="M43.0439 40.3675C22.804 50 10.2429 41.9408 2.20209 37.0458C1.70453 36.7373 0.858855 37.1179 1.5926 37.9607C4.27138 41.2088 13.0503 49.0376 24.5094 49.0376C35.9763 49.0376 42.7981 42.7807 43.6515 41.6892C44.4991 40.607 43.9003 40.01 43.0437 40.3675H43.0439ZM48.7282 37.2283C48.1847 36.5205 45.4232 36.3886 43.6853 36.6021C41.9447 36.8094 39.3321 37.8732 39.5592 38.5119C39.6758 38.7512 39.9137 38.6438 41.1094 38.5363C42.3084 38.4167 45.6673 37.9928 46.3672 38.9077C47.0703 39.829 45.2959 44.2176 44.9718 44.9254C44.6587 45.6331 45.0914 45.8157 45.6796 45.3443C46.2597 44.8731 47.3098 43.6527 48.0145 41.9258C48.7144 40.1894 49.1411 37.7672 48.728 37.2283H48.7282Z" fill="#FF9900"/>
        <path fill-rule="evenodd" clip-rule="evenodd" d="M29.4348 20.7125C29.4348 23.2399 29.4987 25.3476 28.2212 27.5921C27.1901 29.4172 25.5569 30.5394 23.732 30.5394C21.241 30.5394 19.7902 28.6415 19.7902 25.8404C19.7902 20.3109 24.7447 19.3073 29.4348 19.3073V20.7125ZM35.977 36.5251C35.5481 36.9082 34.9276 36.9357 34.4441 36.6801C32.2907 34.8918 31.9074 34.0616 30.7213 32.3552C27.1628 35.9868 24.6445 37.0725 20.0276 37.0725C14.5711 37.0725 10.3191 33.7056 10.3191 26.9626C10.3191 21.698 13.1752 18.112 17.2353 16.3602C20.7575 14.8089 25.6755 14.5352 29.4348 14.1065V13.267C29.4348 11.7249 29.5533 9.90003 28.6501 8.56794C27.8562 7.37261 26.3416 6.87986 25.0093 6.87986C22.5367 6.87986 20.3286 8.14809 19.7902 10.7759C19.6806 11.36 19.2519 11.9349 18.668 11.9622L12.372 11.2871C11.8429 11.1683 11.259 10.7396 11.405 9.92734C12.8557 2.29951 19.7444 0 25.9125 0C29.0696 0 33.1937 0.839523 35.6848 3.23019C38.8419 6.17728 38.5407 10.1099 38.5407 14.3892V24.4991C38.5407 27.5375 39.7999 28.8696 40.986 30.5121C41.4057 31.096 41.497 31.7988 40.9677 32.2365C39.6447 33.3405 37.2906 35.3936 35.995 36.5434L35.9768 36.5251" fill="black"/>
    </g>
    <defs>
        <clipPath id="clip0_6_7915">
            <rect width="50" height="50" fill="white"/>
        </clipPath>
    </defs>
</svg>
