<svg width="50" height="50" viewBox="0 0 50 50" fill="none" xmlns="http://www.w3.org/2000/svg">
    <path fill-rule="evenodd" clip-rule="evenodd" d="M9.36956 8.89811C10.9167 10.1551 11.4971 10.0592 14.4024 9.86534L41.7919 8.22073C42.3728 8.22073 41.8898 7.64121 41.696 7.54492L37.1472 4.25647C36.2756 3.57978 35.1144 2.80484 32.8888 2.9987L6.36755 4.93307C5.40031 5.02897 5.20714 5.51259 5.59231 5.90021L9.36956 8.89811ZM11.014 15.2812V44.0997C11.014 45.6485 11.7879 46.228 13.5299 46.1321L43.631 44.3904C45.3738 44.2946 45.568 43.2293 45.568 41.9711V13.346C45.568 12.0899 45.0847 11.4125 44.0179 11.5092L12.562 13.346C11.4011 13.4435 11.0139 14.0242 11.0139 15.2812H11.014ZM40.7296 16.8271C40.9226 17.6983 40.7296 18.5688 39.8567 18.6667L38.4065 18.9557V40.2314C37.1472 40.9082 35.986 41.2951 35.0184 41.2951C33.4692 41.2951 33.0812 40.8112 31.9208 39.3614L22.434 24.4683V38.8778L25.436 39.5552C25.436 39.5552 25.436 41.2951 23.014 41.2951L16.3371 41.6824C16.1431 41.2951 16.3371 40.3288 17.0144 40.1353L18.7567 39.6523V20.6002L16.3376 20.4064C16.1435 19.5351 16.6268 18.2789 17.9828 18.1815L25.1455 17.6986L35.0184 32.7856V19.4392L32.5012 19.1504C32.308 18.0853 33.0812 17.3119 34.0492 17.216L40.7296 16.8271ZM4.14077 2.3221L31.7271 0.290556C35.1148 1.38432e-05 35.9864 0.194655 38.1156 1.74131L46.9215 7.93058C48.3745 8.99489 48.8589 9.28465 48.8589 10.4449V44.3904C48.8589 46.5178 48.0838 47.776 45.3743 47.9685L13.3382 49.903C11.3042 50 10.3362 49.7102 9.27102 48.3554L2.78622 39.9417C1.62434 38.3929 1.14111 37.2343 1.14111 35.8787V5.70566C1.14111 3.96593 1.91635 2.51469 4.14077 2.3221Z" fill="black"/>
</svg>
