<svg xmlns="http://www.w3.org/2000/svg" version="1.1" xmlns:xlink="http://www.w3.org/1999/xlink" xmlns:svgjs="http://svgjs.dev/svgjs" width="34.67603305785124" height="34.41744"><svg style="max-height: 500px" xmlns="http://www.w3.org/2000/svg" xmlns:xlink="http://www.w3.org/1999/xlink" version="1.1" viewBox="522.7467768595042 522.8496 34.67603305785124 34.41744" xml:space="preserve" width="34.67603305785124" height="34.41744">
<desc>Created with Fabric.js 5.2.4</desc>
<defs>
</defs>
<g transform="matrix(1 0 0 1 540 540)" id="SvgjsG1005">
<rect style="stroke: none; stroke-width: 1; stroke-dasharray: none; stroke-linecap: butt; stroke-dashoffset: 0; stroke-linejoin: miter; stroke-miterlimit: 4; fill: rgb(255,255,255); fill-rule: nonzero; opacity: 1; visibility: hidden;" x="-540" y="-540" rx="0" ry="0" width="1080" height="1080"></rect>
</g>
<g transform="matrix(1 0 0 1 540 540)" id="SvgjsG1004">
</g>
<g transform="matrix(0.48 0 0 0.48 540 540)" id="SvgjsG1003">
<circle style="stroke: rgb(255,255,255); stroke-width: 0; stroke-dasharray: none; stroke-linecap: butt; stroke-dashoffset: 0; stroke-linejoin: miter; stroke-miterlimit: 4; fill: rgb(255,255,255); fill-rule: nonzero; opacity: 1;" cx="0" cy="0" r="35"></circle>
</g>
<g transform="matrix(1 0 0 1 540 540)">
<g style="">
		<g transform="matrix(1 0 0 1 0 -5)">
<path style="stroke: rgb(0,0,0); stroke-width: 2; stroke-dasharray: none; stroke-linecap: round; stroke-dashoffset: 0; stroke-linejoin: round; stroke-miterlimit: 4; fill: none; fill-rule: nonzero; opacity: 1;" transform="translate(-12.01, -7)" d="M 12.83 2.18 C 12.302794145881156 1.9395237627926534 11.697205854118844 1.9395237627926534 11.17 2.1799999999999997 L 2.6 6.08 C 2.2374279915937523 6.239870020343005 2.003453838747384 6.5987464389002755 2.003453838747384 6.995 C 2.003453838747384 7.391253561099725 2.2374279915937523 7.750129979656995 2.6 7.91 L 11.18 11.82 C 11.707205854118843 12.060476237207347 12.312794145881156 12.060476237207347 12.84 11.82 L 21.42 7.92 C 21.782572008406248 7.760129979656995 22.016546161252617 7.4012535610997245 22.016546161252617 7.005 C 22.016546161252617 6.608746438900275 21.782572008406248 6.249870020343005 21.42 6.09 z" stroke-linecap="round"></path>
</g>
		<g transform="matrix(1 0 0 1 -0.01 2.5)">
<path style="stroke: rgb(0,0,0); stroke-width: 2; stroke-dasharray: none; stroke-linecap: round; stroke-dashoffset: 0; stroke-linejoin: round; stroke-miterlimit: 4; fill: none; fill-rule: nonzero; opacity: 1;" transform="translate(-12, -14.5)" d="M 2 12 C 1.9990335373923416 12.390570999566654 2.2255457648718364 12.745960873715518 2.5799999999999996 12.91 L 11.18 16.82 C 11.704372367192581 17.05744639853306 12.305627632807418 17.05744639853306 12.83 16.82 L 21.41 12.92 C 21.771677191489008 12.757434016061362 22.003132785563153 12.396520208352523 22 12" stroke-linecap="round"></path>
</g>
		<g transform="matrix(1 0 0 1 -0.01 7.5)">
<path style="stroke: rgb(0,0,0); stroke-width: 2; stroke-dasharray: none; stroke-linecap: round; stroke-dashoffset: 0; stroke-linejoin: round; stroke-miterlimit: 4; fill: none; fill-rule: nonzero; opacity: 1;" transform="translate(-12, -19.5)" d="M 2 17 C 1.9990335373923416 17.390570999566656 2.2255457648718364 17.745960873715518 2.5799999999999996 17.91 L 11.18 21.82 C 11.704372367192581 22.05744639853306 12.305627632807418 22.05744639853306 12.83 21.82 L 21.41 17.92 C 21.771677191489008 17.757434016061364 22.003132785563153 17.396520208352523 22 17" stroke-linecap="round"></path>
</g>
</g>
</g>
</svg><style>@media (prefers-color-scheme: light) { :root { filter: none; } }
@media (prefers-color-scheme: dark) { :root { filter: none; } }
</style></svg>